<?xml version="1.0" encoding="utf-8"?>
<!-- Generator: Adobe Illustrator 22.1.0, SVG Export Plug-In . SVG Version: 6.00 Build 0)  -->
<svg version="1.1" id="Слой_1" xmlns="http://www.w3.org/2000/svg" xmlns:xlink="http://www.w3.org/1999/xlink" x="0px" y="0px"
	 viewBox="0 0 189 62" style="enable-background:new 0 0 189 62;" xml:space="preserve">
<style type="text/css">
	.st0{fill:#214496;}
</style>
<path class="st0" d="M179.9,39.4c0,10.6-8.6,19.2-19.2,19.2c-10.6,0-19.2-8.6-19.2-19.2s8.6-19.2,19.2-19.2
	C171.3,20.2,179.9,28.8,179.9,39.4z M160.7,58.2c10.4,0,18.8-8.4,18.8-18.8s-8.4-18.8-18.8-18.8c-10.4,0-18.8,8.4-18.8,18.8
	S150.3,58.2,160.7,58.2z"/>
<path class="st0" d="M151.7,59.7l0.6-2.1c2.7,1.2,5.7,1.7,6.8,1.8l-0.7,2.2C156.7,61.5,153.1,60.5,151.7,59.7z"/>
<path class="st0" d="M168.7,60.2l-1-1.9c2.8-1.1,5.3-2.8,6.1-3.6l1,2C173.5,58,170.1,59.8,168.7,60.2z"/>
<path class="st0" d="M181.2,39.5c0,11.2-9.1,20.3-20.3,20.3s-20.3-9.1-20.3-20.3s9.1-20.3,20.3-20.3S181.2,28.3,181.2,39.5z
	 M160.9,59.4c11,0,19.8-8.9,19.8-19.8c0-11-8.9-19.8-19.8-19.8c-11,0-19.8,8.9-19.8,19.8C141.1,50.5,149.9,59.4,160.9,59.4z"/>
<path class="st0" d="M188.4,39.6c-6-5.3-32.3,12.9-36,16.8c4.2-5.7,17.5-30.9,13.4-56.4C174.8,6.1,188.6,17.7,188.4,39.6z"/>
<path d="M26.6,43.2L26.6,43.2C26.6,43.3,26.6,43.3,26.6,43.2L26.6,43.2l-0.1,0.1l0,0C26.5,43.3,26.5,43.3,26.6,43.2L26.6,43.2z
	 M26.7,43.2L26.7,43.2C26.7,43.3,26.7,43.3,26.7,43.2L26.7,43.2l-0.1,0.1l0,0C26.7,43.3,26.7,43.3,26.7,43.2L26.7,43.2z"/>
<path class="st0" d="M1.9,22.4h0.7v-4.6h1.8v-0.6H0.1v0.6h1.8V22.4z"/>
<path class="st0" d="M4.5,19.8c0,1.5,1.2,2.7,2.7,2.7s2.7-1.2,2.7-2.7s-1.2-2.7-2.7-2.7S4.5,18.2,4.5,19.8z M5.3,19.8
	c0-1.1,0.9-2,1.9-2c1.1,0,1.9,0.9,1.9,2c0,1.2-0.9,2.1-1.9,2.1C6.1,21.8,5.3,20.9,5.3,19.8z"/>
<path class="st0" d="M10.8,22.4h1.9c0.9,0,1.7-0.5,1.7-1.5c0-0.6-0.3-1.1-0.9-1.3l0,0c0.4-0.2,0.7-0.6,0.7-1.1
	c0-0.8-0.6-1.3-1.5-1.3h-1.8L10.8,22.4L10.8,22.4z M11.5,19.4v-1.6h1.1c0.5,0,0.8,0.3,0.8,0.8s-0.3,0.8-0.8,0.8
	C12.6,19.4,11.5,19.4,11.5,19.4z M11.5,21.8V20h1.2c0.5,0,0.9,0.4,0.9,0.9s-0.3,0.9-0.9,0.9H11.5z"/>
<path class="st0" d="M16.9,22.4h0.7v-2.3h2.7v2.3H21v-5.2h-0.7v2.3h-2.7v-2.3h-0.7V22.4z"/>
<path class="st0" d="M21.8,21.4c0,0.7,0.6,1.1,1.3,1.1c0.6,0,1-0.3,1.2-0.8l0,0c0,0,0,0.1,0,0.3v0.4H25V20c0-1-0.5-1.5-1.5-1.5
	c-0.5,0-1.1,0.2-1.4,0.4l0.3,0.5c0.3-0.2,0.7-0.4,1.1-0.4c0.5,0,0.8,0.2,0.8,0.8v0.1H24C23.3,20.1,21.8,20.2,21.8,21.4z M22.5,21.3
	c0-0.7,1-0.7,1.5-0.7h0.2v0.1c0,0.6-0.4,1.2-1,1.2C22.7,21.9,22.5,21.6,22.5,21.3z"/>
<path class="st0" d="M25.6,23.2l-0.3,0.5c0,0,0.3,0.2,0.7,0.2c0.5,0,1-0.3,1.2-0.9l1.8-4.4h-0.8l-0.9,2.5c-0.1,0.2-0.1,0.4-0.1,0.4
	l0,0c0,0-0.1-0.3-0.1-0.5l-0.9-2.5h-0.8l1.6,3.7l-0.2,0.4c-0.1,0.3-0.4,0.6-0.7,0.6C25.8,23.4,25.6,23.2,25.6,23.2z"/>
<path class="st0" d="M29.5,22.4h0.7v-1.6h0.5l1.1,1.6h0.9l-1.4-2l0,0l1.3-1.8h-0.8l-1,1.5h-0.5v-1.5h-0.7v3.8H29.5z"/>
<path class="st0" d="M32.8,20.5c0,1.1,0.9,2,2,2s2-0.8,2-2c0-1.1-0.9-2-2-2C33.7,18.6,32.8,19.4,32.8,20.5z M33.6,20.5
	c0-0.8,0.6-1.3,1.3-1.3s1.3,0.6,1.3,1.3c0,0.8-0.6,1.4-1.3,1.4C34.2,21.9,33.6,21.3,33.6,20.5z"/>
<path class="st0" d="M37.6,22.4h1.6c0.8,0,1.4-0.4,1.4-1.1c0-0.4-0.2-0.8-0.7-0.9l0,0c0.3-0.1,0.5-0.5,0.5-0.8c0-0.6-0.5-1-1.3-1
	h-1.6L37.6,22.4L37.6,22.4z M38.3,20.2v-1.1H39c0.5,0,0.7,0.2,0.7,0.5s-0.2,0.6-0.6,0.6H38.3z M38.3,21.9v-1.2h0.8
	c0.5,0,0.8,0.2,0.8,0.6c0,0.3-0.2,0.6-0.8,0.6H38.3z"/>
<path class="st0" d="M41,20.5c0,1.1,0.9,2,2,2s2-0.8,2-2c0-1.1-0.9-2-2-2C41.9,18.6,41,19.4,41,20.5z M41.7,20.5
	c0-0.8,0.6-1.3,1.3-1.3s1.3,0.6,1.3,1.3c0,0.8-0.6,1.4-1.3,1.4S41.7,21.3,41.7,20.5z"/>
<path class="st0" d="M45.7,20.6h2.2V20h-2.2V20.6z"/>
<path class="st0" d="M48.9,22.4h1.9c0.9,0,1.7-0.5,1.7-1.5c0-0.6-0.3-1.1-0.9-1.3l0,0c0.4-0.2,0.7-0.6,0.7-1.1
	c0-0.8-0.6-1.3-1.5-1.3H49v5.2H48.9z M49.6,19.4v-1.6h1.1c0.5,0,0.8,0.3,0.8,0.8s-0.3,0.8-0.8,0.8C50.7,19.4,49.6,19.4,49.6,19.4z
	 M49.6,21.8V20h1.2c0.5,0,0.9,0.4,0.9,0.9s-0.3,0.9-0.9,0.9H49.6z"/>
<path class="st0" d="M53.2,22.4h0.7l1.6-2.2c0.1-0.2,0.3-0.4,0.3-0.5l0,0c0,0.1,0,0.3,0,0.5v2.2h0.7v-3.8h-0.7l-1.6,2.2
	c-0.1,0.2-0.3,0.4-0.3,0.5l0,0c0,0,0-0.3,0-0.5v-2.2h-0.7V22.4z"/>
<path class="st0" d="M57.4,23.9h0.7v-1.7c0-0.2,0-0.3,0-0.3l0,0c0.3,0.4,0.7,0.6,1.2,0.6c1,0,1.7-0.8,1.7-2s-0.6-2-1.6-2
	c-0.5,0-1,0.3-1.3,0.7l0,0c0,0,0-0.1,0-0.3v-0.3h-0.7C57.4,18.6,57.4,23.9,57.4,23.9z M58.1,20.6c0-1,0.5-1.4,1.1-1.4
	s1.1,0.5,1.1,1.3c0,0.9-0.5,1.3-1.1,1.3C58.5,21.9,58.1,21.2,58.1,20.6z"/>
<path class="st0" d="M61.5,20.5c0,1.1,0.9,2,2,2s2-0.8,2-2c0-1.1-0.9-2-2-2C62.4,18.6,61.5,19.4,61.5,20.5z M62.2,20.5
	c0-0.8,0.6-1.3,1.3-1.3c0.7,0,1.3,0.6,1.3,1.3c0,0.8-0.6,1.4-1.3,1.4C62.8,21.9,62.2,21.3,62.2,20.5z"/>
<path class="st0" d="M66,20.3c0,1.3,0.6,2.3,1.8,2.3c1.1,0,1.8-0.7,1.8-1.8c0-1.1-0.7-1.7-1.6-1.7c-0.5,0-1,0.2-1.3,0.7l0,0
	c0.1-0.7,0.4-1.2,1.2-1.5l1.4-0.6L69.1,17l-1.3,0.6C66.4,18.1,66,18.9,66,20.3z M66.8,20.7c0-0.7,0.5-1.2,1.1-1.2s1,0.4,1,1.2
	c0,0.7-0.5,1.2-1.1,1.2C67.3,21.9,66.8,21.5,66.8,20.7z"/>
<path class="st0" d="M70.4,22.4h0.7v-1.6H73v1.6h0.7v-3.8H73v1.5h-1.9v-1.5h-0.7V22.4z"/>
<path class="st0" d="M74.6,22.4h0.7l1.6-2.2c0.1-0.2,0.3-0.4,0.3-0.5l0,0c0,0.1,0,0.3,0,0.5v2.2H78v-3.8h-0.7l-1.6,2.2
	c-0.1,0.2-0.3,0.4-0.3,0.5l0,0c0,0,0-0.3,0-0.5v-2.2h-0.7v3.8H74.6z"/>
<path class="st0" d="M79.9,21.1c0.4,0,0.8-0.1,1-0.3l0,0c0,0,0,0.1,0,0.2v1.4h0.7v-3.8h-0.7v1.6c-0.2,0.1-0.5,0.3-0.8,0.3
	c-0.6,0-0.8-0.3-0.8-0.7v-1.1h-0.7v1.2C78.6,20.7,79.1,21.1,79.9,21.1z"/>
<path class="st0" d="M82.3,21.4c0,0.7,0.6,1.1,1.3,1.1c0.6,0,1-0.3,1.2-0.8l0,0c0,0,0,0.1,0,0.3v0.4h0.7V20c0-1-0.5-1.5-1.5-1.5
	c-0.5,0-1.1,0.2-1.4,0.4l0.3,0.5c0.3-0.2,0.7-0.4,1.1-0.4c0.5,0,0.8,0.2,0.8,0.8v0.1h-0.2C83.7,20.1,82.3,20.2,82.3,21.4z M83,21.3
	c0-0.7,1-0.7,1.5-0.7h0.2v0.1c0,0.6-0.4,1.2-1,1.2C83.2,21.9,83,21.6,83,21.3z"/>
<path class="st0" d="M88.1,22.4h0.7V20h0.8l1.4,2.4h0.8l-1.6-2.7l0,0l1.5-2.5H91l-1.3,2.2h-0.8v-2.2h-0.7L88.1,22.4L88.1,22.4z"/>
<path class="st0" d="M91.9,20.5c0,1.1,0.9,2,2,2s2-0.8,2-2c0-1.1-0.9-2-2-2C92.8,18.6,91.9,19.4,91.9,20.5z M92.7,20.5
	c0-0.8,0.6-1.3,1.3-1.3c0.7,0,1.3,0.6,1.3,1.3c0,0.8-0.6,1.4-1.3,1.4C93.2,21.9,92.7,21.3,92.7,20.5z"/>
<path class="st0" d="M96.7,23.9h0.7v-1.7c0-0.2,0-0.3,0-0.3l0,0c0.3,0.4,0.7,0.6,1.2,0.6c1,0,1.7-0.8,1.7-2s-0.6-2-1.6-2
	c-0.5,0-1,0.3-1.3,0.7l0,0c0,0,0-0.1,0-0.3v-0.3h-0.7C96.7,18.6,96.7,23.9,96.7,23.9z M97.3,20.6c0-1,0.5-1.4,1.1-1.4
	s1.1,0.5,1.1,1.3c0,0.9-0.5,1.3-1.1,1.3C97.7,21.9,97.3,21.2,97.3,20.6z"/>
<path class="st0" d="M100.9,22.4h0.7v-3.1h1.8v3.1h0.7v-3.8h-3.3v3.8H100.9z"/>
<path class="st0" d="M104.9,20.5c0,1.1,0.9,2,2,2s2-0.8,2-2c0-1.1-0.9-2-2-2C105.8,18.6,104.9,19.4,104.9,20.5z M105.6,20.5
	c0-0.8,0.6-1.3,1.3-1.3c0.7,0,1.3,0.6,1.3,1.3c0,0.8-0.6,1.4-1.3,1.4S105.6,21.3,105.6,20.5z"/>
<path class="st0" d="M109.6,23.9h0.7v-1.7c0-0.2,0-0.3,0-0.3l0,0c0.3,0.4,0.7,0.6,1.2,0.6c1,0,1.7-0.8,1.7-2s-0.6-2-1.6-2
	c-0.6,0-1,0.3-1.3,0.7l0,0c0,0,0-0.1,0-0.3v-0.3h-0.7C109.6,18.6,109.6,23.9,109.6,23.9z M110.3,20.6c0-1,0.5-1.4,1.1-1.4
	s1.1,0.5,1.1,1.3c0,0.9-0.5,1.3-1.1,1.3C110.7,21.9,110.3,21.2,110.3,20.6z"/>
<path class="st0" d="M113.6,21.4c0,0.7,0.6,1.1,1.3,1.1c0.6,0,1-0.3,1.2-0.8l0,0c0,0,0,0.1,0,0.3v0.4h0.7V20c0-1-0.5-1.5-1.5-1.5
	c-0.5,0-1.1,0.2-1.4,0.4l0.3,0.5c0.3-0.2,0.7-0.4,1.1-0.4c0.5,0,0.8,0.2,0.8,0.8v0.1h-0.2C115.1,20.1,113.6,20.2,113.6,21.4z
	 M114.3,21.3c0-0.7,1-0.7,1.5-0.7h0.2v0.1c0,0.6-0.4,1.2-1,1.2C114.5,21.9,114.3,21.6,114.3,21.3z"/>
<path class="st0" d="M117.6,22.4h3.1v0.9h0.7v-1.5h-0.5v-3.1h-0.7v3.1h-1.8v-3.1h-0.7L117.6,22.4L117.6,22.4z"/>
<path class="st0" d="M122,17.9h0.7v-0.7H122V17.9z M122,22.4h0.7v-3.8H122V22.4z"/>
<path class="st0" d="M123.2,22.4h0.8l0.9-1.4h0.6v1.4h0.7v-3.8h-1.5c-0.8,0-1.3,0.4-1.3,1.2c0,0.6,0.4,1,0.8,1.1l0,0
	c0,0-0.1,0.1-0.2,0.2L123.2,22.4z M125,20.5c-0.4,0-0.8-0.2-0.8-0.7s0.3-0.7,0.8-0.7h0.6v1.4C125.6,20.5,125,20.5,125,20.5z"/>
<path class="st0" d="M24.8,47.1h2.9v-6.9h2.1l3.9,6.9H37l-4.7-8.2l0,0l4.5-7.5h-3.1L30,37.8h-2.1v-6.4H25v15.7H24.8z"/>
<path class="st0" d="M37.8,44.7v2.6c4.4-0.2,6.2-4,6.2-11.6v-1.9h4.2v13.4H51V31.3h-9.8v4.3C41.2,41.7,40.1,44.4,37.8,44.7z"/>
<path class="st0" d="M55.1,47.1H58V31.3h-2.9V47.1z"/>
<path class="st0" d="M62.2,47.1h5.7c2.9,0,5.5-1.4,5.5-4.6c0-1.6-0.8-3.2-2.6-3.7l0,0c1.2-0.6,1.9-1.9,1.9-3.4c0-2.6-2-4.1-4.9-4.1
	h-5.6C62.2,31.3,62.2,47.1,62.2,47.1z M65.1,37.8v-4h2.7c1.3,0,2,0.8,2,2c0,1.1-0.7,2-2,2H65.1z M65.1,44.6V40h3.1
	c1.4,0,2.3,1,2.3,2.3s-0.8,2.3-2.3,2.3H65.1z"/>
<path class="st0" d="M76.6,47.1h9.8v-2.5h-7v-4.3h5.3v-2.5h-5.3v-4.1H86v-2.5h-9.5L76.6,47.1L76.6,47.1z"/>
<path class="st0" d="M89.7,47.1h2.9v-5.5h3.2c3,0,5-2.1,5-5.2c0-3.1-2.1-5.1-5-5.1h-6.1V47.1z M92.5,39.2v-5.4h2.7
	c1.6,0,2.6,1,2.6,2.7c0,1.6-1,2.7-2.7,2.7H92.5z"/>
<path class="st0" d="M0,25.4h126.3v1.2H0V25.4z"/>
<path class="st0" d="M12.5,40.6l3.5-4l0.8,0.7L13.6,41l3.2,3.7L16,45.4l-3.5-4.1L12.5,40.6z"/>
<path class="st0" d="M108.3,41.4l-3.5,4l-0.8-0.7l3.2-3.7l-3.2-3.7l0.8-0.7l3.5,4.1V41.4z"/>
<path class="st0" d="M15.9,40.6l3.5-4l0.8,0.7L17,40.9l3.2,3.7l-0.8,0.7l-3.5-4.1L15.9,40.6z"/>
<path class="st0" d="M111.7,41.4l-3.5,4l-0.8-0.7l3.2-3.7l-3.2-3.7l0.8-0.7l3.5,4.1V41.4z"/>
<path class="st0" d="M181,48.8l-2-0.6c1.3-2.7,1.8-5.7,2-6.8l2.1,0.8C183,43.8,181.8,47.5,181,48.8z"/>
<path class="st0" d="M140.2,47.5l1.9-1.1c1.1,2.8,2.9,5.2,3.6,6.1l-2,1.1C142.4,52.2,140.6,49,140.2,47.5z"/>
<path class="st0" d="M140.5,30.8l2.1,0.5c-1.1,2.8-1.5,5.7-1.6,6.9l-2.2-0.6C138.8,35.7,139.7,32.1,140.5,30.8z"/>
<path class="st0" d="M152.6,18.9l1.1,1.9c-2.7,1.1-5.2,2.9-6,3.7l-1.1-2C147.8,21.2,151.1,19.3,152.6,18.9z"/>
<path class="st0" d="M169.6,19.1l-0.6,2.1c-2.7-1.2-5.7-1.6-6.8-1.7l0.7-2.2C164.7,17.3,168.3,18.3,169.6,19.1z"/>
</svg>
