<?xml version="1.0" encoding="utf-8"?>
<!-- Generator: Adobe Illustrator 22.1.0, SVG Export Plug-In . SVG Version: 6.00 Build 0)  -->
<svg version="1.1" id="Слой_1" xmlns="http://www.w3.org/2000/svg" xmlns:xlink="http://www.w3.org/1999/xlink" x="0px" y="0px"
	 viewBox="0 0 189 62" style="enable-background:new 0 0 189 62;" xml:space="preserve">
<style type="text/css">
	.st0{fill:#214496;}
</style>
<path class="st0" d="M179.9,39.4c0,10.6-8.6,19.2-19.2,19.2c-10.6,0-19.2-8.6-19.2-19.2c0-10.6,8.6-19.2,19.2-19.2
	C171.3,20.2,179.9,28.8,179.9,39.4z M160.7,58.2c10.4,0,18.8-8.4,18.8-18.8c0-10.4-8.4-18.8-18.8-18.8c-10.4,0-18.8,8.4-18.8,18.8
	C141.9,49.8,150.3,58.2,160.7,58.2z"/>
<path class="st0" d="M151.7,59.7l0.6-2.1c2.7,1.2,5.7,1.7,6.8,1.8l-0.7,2.2C156.7,61.5,153.1,60.5,151.7,59.7z"/>
<path class="st0" d="M168.7,60.2l-1-1.9c2.8-1.1,5.3-2.8,6.1-3.6l1,2C173.5,58,170.1,59.8,168.7,60.2z"/>
<path class="st0" d="M181.2,39.5c0,11.2-9.1,20.3-20.3,20.3s-20.3-9.1-20.3-20.3s9.1-20.3,20.3-20.3S181.2,28.3,181.2,39.5z
	 M160.9,59.4c11,0,19.8-8.9,19.8-19.8s-8.9-19.8-19.8-19.8c-11,0-19.8,8.9-19.8,19.8S149.9,59.4,160.9,59.4z"/>
<path class="st0" d="M188.4,39.6c-6-5.3-32.3,12.9-36,16.8c4.2-5.7,17.5-30.9,13.4-56.4C174.8,6.1,188.6,17.7,188.4,39.6z"/>
<path class="st0" d="M3,21.9c0.5,0.5,1.1,0.7,1.7,0.7c1.1,0,1.7-0.7,1.7-1.5c0-1.7-2.5-1.4-2.5-2.6c0-0.5,0.4-0.8,0.9-0.8
	c0.4,0,0.9,0.2,1.2,0.5l0.3-0.6C5.9,17.2,5.4,17,4.8,17c-1,0-1.7,0.6-1.7,1.5c0,1.7,2.5,1.4,2.5,2.6c0,0.5-0.4,0.8-0.9,0.8
	c-0.5,0-1-0.3-1.3-0.6L3,21.9z"/>
<path class="st0" d="M6.9,20.5c0,1.2,0.8,2,2,2c0.6,0,1.2-0.2,1.5-0.6l-0.3-0.5c-0.3,0.3-0.7,0.5-1.2,0.5c-0.8,0-1.3-0.6-1.3-1.4
	c0-0.8,0.5-1.4,1.3-1.4c0.4,0,0.8,0.2,1,0.4l0.3-0.5c-0.4-0.4-0.9-0.6-1.4-0.6C7.7,18.5,6.9,19.4,6.9,20.5z"/>
<path class="st0" d="M10.9,17.8h0.7v-0.7h-0.7V17.8z M11,22.5h0.7v-3.9H11V22.5z"/>
<path class="st0" d="M12.4,20.5c0,1.1,0.8,2,2,2c0.5,0,1.1-0.2,1.5-0.5l-0.3-0.5c-0.3,0.3-0.7,0.4-1.1,0.4c-0.7,0-1.3-0.4-1.3-1.3
	h2.7c0-0.1,0-0.2,0-0.3c0-1-0.6-1.8-1.6-1.8C13.2,18.5,12.4,19.3,12.4,20.5z M13.1,20.1c0.1-0.6,0.5-1,1.1-1c0.5,0,0.9,0.4,0.9,1
	H13.1z"/>
<path class="st0" d="M16.5,22.5h0.7v-1.9c0-0.8,0.5-1.4,1.3-1.4c0.6,0,0.7,0.4,0.7,1v2.3h0.7V20c0-1-0.4-1.5-1.3-1.5
	c-0.8,0-1.3,0.6-1.4,0.9h0c0,0,0-0.1,0-0.3v-0.5h-0.7V22.5z"/>
<path class="st0" d="M21,21.1c0,1.3,1,1.4,1.4,1.4c0.1,0,0.2,0,0.3,0v-0.7c-0.1,0-0.1,0-0.2,0c-0.3,0-0.8-0.1-0.8-0.9v-1.7h0.9v-0.6
	h-0.9v-1.1H21v1.1h-0.5v0.6H21V21.1z"/>
<path class="st0" d="M23.2,17.8h0.7v-0.7h-0.7V17.8z M23.2,22.5h0.7v-3.9h-0.7V22.5z"/>
<path class="st0" d="M25,22.5h0.7v-3.3h1.6v3.3h0.7v-3.9h-2.3v-0.1c0-0.7,0.5-0.8,0.8-0.8c0.1,0,0.2,0,0.2,0v-0.6
	c-0.1,0-0.2,0-0.3,0c-0.5,0-1.4,0.2-1.4,1.4v0.1h-0.5v0.6H25V22.5z M27.3,17.8h0.7v-0.7h-0.7V17.8z"/>
<path class="st0" d="M28.7,20.5c0,1.2,0.8,2,2,2c0.6,0,1.2-0.2,1.5-0.6L32,21.4c-0.3,0.3-0.7,0.5-1.2,0.5c-0.8,0-1.3-0.6-1.3-1.4
	c0-0.8,0.5-1.4,1.3-1.4c0.4,0,0.8,0.2,1,0.4l0.3-0.5c-0.4-0.4-0.9-0.6-1.4-0.6C29.6,18.5,28.7,19.4,28.7,20.5z"/>
<path class="st0" d="M34.4,21c0,0.9,0.7,1.6,1.8,1.6c1.1,0,1.8-0.7,1.8-1.9V20h0.7v-0.7H38v-0.7h-0.7v0.7h-1c-0.8,0-1-0.5-1-0.8
	c0-0.5,0.4-0.8,0.9-0.8c0.1,0,0.3,0,0.4,0l0.2-0.6C36.6,17,36.4,17,36.2,17c-0.9,0-1.6,0.5-1.6,1.4c0,0.6,0.3,1,0.7,1.2v0
	C34.7,19.8,34.4,20.4,34.4,21z M35.1,20.9c0-0.6,0.4-1,1.2-1h1v0.7c0,0.8-0.4,1.2-1.1,1.2C35.5,21.9,35.1,21.4,35.1,20.9z"/>
<path class="st0" d="M41.1,22.5h0.7v-2H43c1,0,1.6-0.7,1.6-1.7c0-1-0.7-1.7-1.6-1.7h-1.9V22.5z M41.8,19.8v-2.1h1.1c0.6,0,1,0.4,1,1
	c0,0.6-0.4,1.1-1,1.1H41.8z"/>
<path class="st0" d="M45.3,22.5H46v-1.6c0-0.7,0.3-1.6,1.1-1.6c0.1,0,0.2,0,0.2,0v-0.7c-0.1,0-0.1,0-0.2,0c-0.6,0-1,0.5-1.2,1h0
	c0,0,0-0.1,0-0.3v-0.7h-0.7V22.5z"/>
<path class="st0" d="M47.5,20.5c0,1.2,0.9,2,2,2c1.1,0,2-0.9,2-2c0-1.2-0.9-2-2-2C48.4,18.5,47.5,19.4,47.5,20.5z M48.2,20.5
	c0-0.8,0.6-1.4,1.3-1.4c0.7,0,1.3,0.6,1.3,1.4c0,0.8-0.6,1.4-1.3,1.4C48.8,21.9,48.2,21.3,48.2,20.5z"/>
<path class="st0" d="M52,20.5c0,1.2,0.6,2,1.7,2c0.6,0,1-0.3,1.2-0.7h0c0,0,0,0.1,0,0.3v0.4h0.7v-5.4h-0.7v1.8c0,0.1,0,0.3,0,0.3h0
	c-0.2-0.4-0.7-0.6-1.2-0.6C52.7,18.5,52,19.3,52,20.5z M52.7,20.5c0-0.9,0.5-1.4,1.1-1.4c0.7,0,1.1,0.7,1.1,1.4c0,1-0.5,1.4-1.1,1.4
	C53.2,21.9,52.7,21.4,52.7,20.5z"/>
<path class="st0" d="M56.4,21.1c0,1,0.4,1.5,1.3,1.5c0.7,0,1.2-0.5,1.4-0.9h0c0,0,0,0.1,0,0.3v0.5h0.7v-3.9h-0.7v1.8
	c0,0.8-0.5,1.5-1.2,1.5c-0.6,0-0.7-0.4-0.7-1v-2.3h-0.7V21.1z"/>
<path class="st0" d="M60.5,20.5c0,1.2,0.8,2,2,2c0.6,0,1.2-0.2,1.5-0.6l-0.3-0.5c-0.3,0.3-0.7,0.5-1.2,0.5c-0.8,0-1.3-0.6-1.3-1.4
	c0-0.8,0.5-1.4,1.3-1.4c0.4,0,0.8,0.2,1,0.4l0.3-0.5c-0.4-0.4-0.9-0.6-1.4-0.6C61.3,18.5,60.5,19.4,60.5,20.5z"/>
<path class="st0" d="M64.7,21.1c0,1.3,1,1.4,1.4,1.4c0.1,0,0.2,0,0.3,0v-0.7c-0.1,0-0.1,0-0.2,0c-0.3,0-0.8-0.1-0.8-0.9v-1.7h0.9
	v-0.6h-0.9v-1.1h-0.7v1.1h-0.5v0.6h0.5V21.1z"/>
<path class="st0" d="M67,17.8h0.7v-0.7H67V17.8z M67,22.5h0.7v-3.9H67V22.5z"/>
<path class="st0" d="M68.4,20.5c0,1.2,0.9,2,2,2c1.1,0,2-0.9,2-2c0-1.2-0.9-2-2-2C69.3,18.5,68.4,19.4,68.4,20.5z M69.1,20.5
	c0-0.8,0.6-1.4,1.3-1.4c0.7,0,1.3,0.6,1.3,1.4c0,0.8-0.6,1.4-1.3,1.4C69.7,21.9,69.1,21.3,69.1,20.5z"/>
<path class="st0" d="M73.1,22.5h0.7v-1.9c0-0.8,0.5-1.4,1.3-1.4c0.6,0,0.7,0.4,0.7,1v2.3h0.7V20c0-1-0.4-1.5-1.3-1.5
	c-0.8,0-1.3,0.6-1.4,0.9h0c0,0,0-0.1,0-0.3v-0.5h-0.7V22.5z"/>
<path class="st0" d="M79.2,22.5h0.7v-5.4h-0.7V22.5z"/>
<path class="st0" d="M80.9,22.5h0.7v-1.9c0-0.8,0.5-1.4,1.3-1.4c0.6,0,0.7,0.4,0.7,1v2.3h0.7V20c0-1-0.4-1.5-1.3-1.5
	c-0.8,0-1.3,0.6-1.4,0.9h0c0,0,0-0.1,0-0.3v-0.5h-0.7V22.5z"/>
<path class="st0" d="M85,20.5c0,1.2,0.8,2,2,2c0.6,0,1.2-0.2,1.5-0.6l-0.3-0.5c-0.3,0.3-0.7,0.5-1.2,0.5c-0.8,0-1.3-0.6-1.3-1.4
	c0-0.8,0.5-1.4,1.3-1.4c0.4,0,0.8,0.2,1,0.4l0.3-0.5c-0.4-0.4-0.9-0.6-1.4-0.6C85.8,18.5,85,19.4,85,20.5z"/>
<path class="st0" d="M88.7,20.5c0,1.2,0.9,2,2,2c1.1,0,2-0.9,2-2c0-1.2-0.9-2-2-2C89.6,18.5,88.7,19.4,88.7,20.5z M89.5,20.5
	c0-0.8,0.6-1.4,1.3-1.4c0.7,0,1.3,0.6,1.3,1.4c0,0.8-0.6,1.4-1.3,1.4C90.1,21.9,89.5,21.3,89.5,20.5z"/>
<path class="st0" d="M93.5,22.5h0.7v-1.6c0-0.7,0.3-1.6,1.1-1.6c0.1,0,0.2,0,0.2,0v-0.7c-0.1,0-0.1,0-0.2,0c-0.6,0-1,0.5-1.2,1h0
	c0,0,0-0.1,0-0.3v-0.7h-0.7V22.5z"/>
<path class="st0" d="M96.1,24h0.7v-1.8c0-0.2,0-0.3,0-0.3h0c0.3,0.4,0.7,0.7,1.2,0.7c1,0,1.7-0.8,1.7-2c0-1.2-0.6-2-1.6-2
	c-0.5,0-1,0.3-1.3,0.7h0c0,0,0-0.1,0-0.3v-0.3h-0.7V24z M96.8,20.6c0-1,0.5-1.4,1.1-1.4c0.6,0,1.1,0.5,1.1,1.4
	c0,0.9-0.5,1.4-1.1,1.4C97.1,21.9,96.8,21.2,96.8,20.6z"/>
<path class="st0" d="M100.1,20.5c0,1.2,0.9,2,2,2c1.1,0,2-0.9,2-2c0-1.2-0.9-2-2-2C101,18.5,100.1,19.4,100.1,20.5z M100.8,20.5
	c0-0.8,0.6-1.4,1.3-1.4c0.7,0,1.3,0.6,1.3,1.4c0,0.8-0.6,1.4-1.3,1.4C101.4,21.9,100.8,21.3,100.8,20.5z"/>
<path class="st0" d="M104.8,22.5h0.7v-1.6c0-0.7,0.3-1.6,1.1-1.6c0.1,0,0.2,0,0.2,0v-0.7c-0.1,0-0.1,0-0.2,0c-0.6,0-1,0.5-1.2,1h0
	c0,0,0-0.1,0-0.3v-0.7h-0.7V22.5z"/>
<path class="st0" d="M107.1,21.4c0,0.7,0.6,1.1,1.3,1.1c0.6,0,1-0.3,1.2-0.8h0c0,0,0,0.1,0,0.3v0.4h0.7V20c0-1-0.5-1.5-1.5-1.5
	c-0.5,0-1.1,0.2-1.4,0.5l0.3,0.5c0.3-0.2,0.7-0.4,1.1-0.4c0.5,0,0.8,0.2,0.8,0.8v0.1h-0.2C108.5,20.1,107.1,20.2,107.1,21.4z
	 M107.8,21.4c0-0.7,1-0.8,1.5-0.8h0.2v0.1c0,0.6-0.4,1.2-1,1.2C108,22,107.8,21.7,107.8,21.4z"/>
<path class="st0" d="M111.2,21.1c0,1.3,1,1.4,1.4,1.4c0.1,0,0.2,0,0.3,0v-0.7c-0.1,0-0.1,0-0.2,0c-0.3,0-0.8-0.1-0.8-0.9v-1.7h0.9
	v-0.6H112v-1.1h-0.7v1.1h-0.5v0.6h0.5V21.1z"/>
<path class="st0" d="M113.5,17.8h0.7v-0.7h-0.7V17.8z M113.5,22.5h0.7v-3.9h-0.7V22.5z"/>
<path class="st0" d="M114.9,20.5c0,1.2,0.9,2,2,2c1.1,0,2-0.9,2-2c0-1.2-0.9-2-2-2C115.8,18.5,114.9,19.4,114.9,20.5z M115.6,20.5
	c0-0.8,0.6-1.4,1.3-1.4c0.7,0,1.3,0.6,1.3,1.4c0,0.8-0.6,1.4-1.3,1.4C116.2,21.9,115.6,21.3,115.6,20.5z"/>
<path class="st0" d="M119.6,22.5h0.7v-1.9c0-0.8,0.5-1.4,1.3-1.4c0.6,0,0.7,0.4,0.7,1v2.3h0.7V20c0-1-0.4-1.5-1.3-1.5
	c-0.8,0-1.3,0.6-1.4,0.9h0c0,0,0-0.1,0-0.3v-0.5h-0.7V22.5z"/>
<path class="st0" d="M26,47h2.8v-6.5h2l3.8,6.5h3.2l-4.7-7.8v0l4.4-7.1h-3.1l-3.7,6.1h-2V32H26V47z"/>
<path class="st0" d="M40.4,47H50v-2.3h-6.8V32h-2.8V47z"/>
<path class="st0" d="M52.5,47h2.8V32h-2.8V47z"/>
<path class="st0" d="M63.3,47h3l5.6-15h-3l-3.5,9.8c-0.3,0.9-0.6,2.2-0.6,2.2h0c0,0-0.3-1.3-0.6-2.2L60.8,32h-3.1L63.3,47z"/>
<path class="st0" d="M74.3,47H84v-2.3h-6.9v-4h5.3v-2.3h-5.3v-3.9h6.5V32h-9.4V47z"/>
<path class="st0" d="M87.1,47H90v-5.6h2.7l3.1,5.6H99l-3.2-5.6c-0.3-0.5-0.5-0.8-0.5-0.8v0c1.7-0.6,2.6-2.3,2.6-4.1
	c0-2-1-3.5-2.6-4.1c-0.7-0.3-1.4-0.4-3-0.4h-5.2V47z M90,39v-4.7h2.1c0.9,0,1.3,0.1,1.7,0.3c0.9,0.3,1.2,1.1,1.2,2
	c0,1.5-0.9,2.4-2.5,2.4H90z"/>
<path class="st0" d="M0,25h126v1.2H0V25z"/>
<path class="st0" d="M14,40.7l3.3-3.7l0.7,0.6L15,41l3,3.4L17.3,45L14,41.3L14,40.7z"/>
<path class="st0" d="M106,41.3l-3.3,3.7l-0.7-0.6l3-3.3l-3-3.4l0.8-0.6l3.3,3.7L106,41.3z"/>
<path class="st0" d="M17,40.7l3.3-3.7l0.7,0.6L18,41l3,3.4L20.3,45L17,41.3L17,40.7z"/>
<path class="st0" d="M111,41.3l-4.1,3.7l-0.9-0.6l3.7-3.3l-3.7-3.4l0.9-0.6l4.1,3.7L111,41.3z"/>
<path class="st0" d="M181,48.6l-2.1-0.6c1.2-2.7,1.7-5.7,1.8-6.9l2.1,0.7C182.8,43.7,181.8,47.3,181,48.6z"/>
<path class="st0" d="M140.3,47.4l1.9-1c1.1,2.8,2.8,5.3,3.6,6.2l-2,1C142.5,52.2,140.7,48.9,140.3,47.4z"/>
<path class="st0" d="M140.7,30.7l2.1,0.6c-1.1,2.8-1.6,5.7-1.7,6.9l-2.1-0.7C138.9,35.7,139.9,32,140.7,30.7z"/>
<path class="st0" d="M152.7,19.1l1.1,1.9c-2.8,1.1-5.2,2.9-6.1,3.7l-1-2C147.9,21.4,151.2,19.5,152.7,19.1z"/>
<path class="st0" d="M169.4,19.1l-0.5,2.1c-2.8-1.1-5.7-1.5-6.9-1.6l0.6-2.2C164.4,17.4,168,18.4,169.4,19.1z"/>
</svg>
